<?xml version="1.0" standalone="no"?>
<!DOCTYPE svg PUBLIC "-//W3C//DTD SVG 20010904//EN"
 "http://www.w3.org/TR/2001/REC-SVG-20010904/DTD/svg10.dtd">
<svg version="1.0" xmlns="http://www.w3.org/2000/svg"
 width="474.000000pt" height="474.000000pt" viewBox="0 0 474.000000 474.000000"
 preserveAspectRatio="xMidYMid meet">

<g transform="translate(0.000000,474.000000) scale(0.100000,-0.100000)"
fill="#d82525" stroke="none">
<path d="M2780 4723 c-14 -2 -36 -6 -49 -9 -24 -5 -24 -5 13 -41 61 -60 81
-106 81 -193 -1 -61 -5 -84 -27 -125 -30 -59 -40 -99 -40 -163 1 -38 24 -122
35 -122 1 0 3 31 4 68 2 115 40 178 163 275 101 80 108 92 86 151 -17 45 -69
97 -126 126 -35 19 -111 36 -140 33z"/>
<path d="M3187 4595 c-13 -93 -62 -160 -169 -228 -128 -83 -178 -182 -165
-325 l6 -63 -32 6 c-18 4 -43 13 -57 20 -49 24 -276 97 -363 116 -378 83 -886
54 -1160 -66 -154 -68 -274 -150 -397 -273 -103 -102 -180 -167 -250 -209 -46
-28 -172 -70 -283 -94 -104 -23 -151 -45 -200 -94 -38 -38 -101 -159 -111
-213 -11 -63 37 -136 133 -201 48 -33 59 -47 75 -92 25 -75 73 -129 142 -163
33 -16 62 -34 66 -40 4 -6 8 -39 8 -73 0 -35 4 -63 9 -63 11 0 54 49 78 90 31
52 34 44 32 -87 0 -49 4 -83 10 -83 13 0 77 75 107 126 20 34 33 44 67 52 159
41 426 39 608 -2 200 -46 380 -130 547 -255 165 -124 344 -345 429 -528 58
-126 129 -367 117 -398 -5 -13 -12 -10 -35 19 -37 44 -83 72 -138 85 -54 12
-67 7 -80 -31 -13 -37 -91 -156 -130 -197 -49 -52 -61 -43 -62 47 -1 42 -4 91
-8 107 l-7 30 -8 -35 c-12 -49 -69 -167 -106 -219 l-32 -44 -54 6 c-76 8 -166
51 -214 103 -66 72 -75 120 -39 213 27 72 22 118 -14 145 -24 17 -43 21 -110
21 -72 0 -88 -3 -129 -28 -107 -64 -160 -151 -166 -272 -5 -101 9 -172 53
-264 40 -82 75 -132 125 -178 29 -27 33 -34 20 -43 -8 -5 -25 -10 -36 -10 -23
0 -94 -27 -94 -35 0 -14 158 -81 268 -113 126 -37 128 -37 312 -37 193 0 224
5 375 57 87 29 238 111 323 175 79 60 185 174 250 270 84 123 163 314 179 430
7 55 17 48 31 -24 52 -272 -21 -601 -187 -846 -61 -91 -204 -239 -275 -285
-56 -36 -50 -38 65 -16 131 24 245 56 383 108 38 15 71 24 73 22 22 -22 -204
-272 -332 -368 -126 -95 -233 -164 -303 -197 -39 -19 -72 -38 -72 -43 0 -10
57 -11 62 0 2 4 53 15 113 26 204 34 452 124 630 228 265 155 513 393 670 642
l50 79 3 -38 c3 -37 -17 -110 -79 -291 -33 -98 -128 -291 -176 -357 -19 -27
-33 -51 -31 -52 2 -2 33 18 68 46 353 273 599 649 702 1072 17 73 35 136 39
140 22 26 55 -326 44 -467 -4 -50 -5 -89 -2 -86 18 18 137 221 177 300 82 163
152 374 180 535 6 39 16 79 21 90 6 12 9 121 7 270 -3 207 -8 269 -26 360 -64
326 -170 603 -333 876 -79 133 -272 389 -293 389 -2 0 -7 -28 -11 -62 -33
-290 -270 -575 -556 -668 -162 -53 -350 -62 -474 -23 -57 19 -68 13 90 48 224
50 454 240 552 455 55 120 68 187 68 345 0 161 -9 208 -63 330 -76 174 -207
309 -396 409 -91 48 -102 47 -109 -9z"/>
</g>
</svg>
